<?xml version="1.0" encoding="UTF-8"?>
<svg width="631px" height="207px" viewBox="0 0 631 207" version="1.1" xmlns="http://www.w3.org/2000/svg" xmlns:xlink="http://www.w3.org/1999/xlink">
    <!-- Generator: Sketch 49.2 (51160) - http://www.bohemiancoding.com/sketch -->
    <title>studiowave</title>
    <desc>Created with Sketch.</desc>
    <defs>
        <polygon id="path-1" points="0.990189499 0.454487067 81.4069873 0.454487067 81.4069873 80.9999413 0.990189499 80.9999413"></polygon>
    </defs>
    <g id="Welcome" stroke="none" stroke-width="1" fill="none" fill-rule="evenodd">
        <g id="World-Cup-2018" transform="translate(-404.000000, -100.000000)">
            <g id="logo" transform="translate(404.000000, 100.000000)">
                <g id="studiowave">
                    <g transform="translate(149.762658, 0.000000)" fill="#278FFF">
                        <polygon id="Fill-15" points="33.1854082 41.563 0 41.563 0 26.292 11.0624684 26.292 11.0624684 30.664 22.1239383 30.664 0 17.488 0 0 33.1854082 0 33.1854082 15.333 22.1239383 15.333 22.1239383 10.959 11.0624684 10.959 33.1854082 24.076"></polygon>
                        <polygon id="Fill-16" points="59.065394 41.503 48.0039241 41.503 48.0039241 10.899 36.9414557 10.899 36.9414557 0 70.1268639 0 70.1268639 10.899 59.065394 10.899"></polygon>
                        <polygon id="Fill-17" points="106.069902 41.503 72.8844937 41.503 72.8844937 0 83.9459636 0 83.9459636 30.604 95.0074335 30.604 95.0074335 0 106.069902 0"></polygon>
                        <path d="M122.101495,30.602 L133.163964,30.602 L133.163964,10.958 L122.101495,10.958 L122.101495,30.602 Z M111.040025,41.562 L111.040025,10.959 L108.827532,10.959 L108.827532,0 L144.225434,0 L144.225434,41.562 L111.040025,41.562 Z" id="Fill-18"></path>
                        <polygon id="Fill-19" points="146.767405 41.563 157.769968 41.563 157.769968 0 146.767405 0"></polygon>
                        <path d="M170.808305,30.604 L181.870774,30.604 L181.870774,10.9 L170.808305,10.9 L170.808305,30.604 Z M159.746835,41.503 L192.932244,41.503 L192.932244,0 L159.746835,0 L159.746835,41.503 Z" id="Fill-20"></path>
                        <polygon id="Fill-21" points="195.689873 41.563 195.689873 0 206.752342 0 206.752342 30.603 214.766641 30.603 214.766641 0 225.829109 0 225.829109 30.603 234.858799 30.603 234.858799 0 245.921267 0 245.921267 41.563"></polygon>
                        <path d="M260.881559,15.271 L271.944027,15.271 L271.944027,10.899 L260.881559,10.899 L260.881559,15.271 Z M271.944027,41.562 L271.944027,26.231 L260.881559,26.231 L260.881559,41.562 L249.820089,41.562 L249.820089,10.899 L247.607595,10.899 L247.607595,0 L283.005497,0 L283.005497,41.562 L271.944027,41.562 Z" id="Fill-22"></path>
                        <polygon id="Fill-23" points="306.433369 41.563 295.910046 41.563 284.549051 0 296.028858 0 301.171707 18.866 306.313559 0 318.810753 0"></polygon>
                        <polygon id="Fill-24" points="352.895736 41.563 319.710328 41.563 319.710328 26.232 317.496835 26.232 317.496835 15.333 319.710328 15.333 319.710328 0 352.895736 0 352.895736 10.959 330.771797 10.959 330.771797 15.333 352.895736 15.333 352.895736 26.232 330.771797 26.232 330.771797 30.603 352.895736 30.603"></polygon>
                    </g>
                    <g id="lineandball" transform="translate(0.000000, 126.000000)">
                        <g id="Group-3" transform="translate(549.129747, 0.000000)">
                            <mask id="mask-2" fill="white">
                                <use xlink:href="#path-1"></use>
                            </mask>
                            <g id="Clip-2"></g>
                            <path d="M34.5627255,1.0132 C12.6634312,4.6852 -2.11714478,25.4412 1.54804668,47.3742 C5.21323813,69.3082 25.9363964,84.1122 47.8346922,80.4412 C69.7339866,76.7702 84.5145625,56.0142 80.849371,34.0802 C77.1841796,12.1472 56.4610214,-2.6578 34.5627255,1.0132" id="Fill-1" fill="#278FFF" mask="url(#mask-2)"></path>
                        </g>
                        <polygon id="Fill-25" fill="#278FFF" points="29.9525316 48.484 221.139541 48.484 221.139541 43 29.9525316 43"></polygon>
                        <polygon id="Fill-26" fill="#278FFF" points="69.8892405 5.484 221.139541 5.484 221.139541 0 69.8892405 0"></polygon>
                        <polygon id="Fill-27" fill="#278FFF" points="59.9050633 16.483 221.139541 16.483 221.139541 11 59.9050633 11"></polygon>
                        <polygon id="Fill-28" fill="#278FFF" points="49.9208861 27.484 221.139541 27.484 221.139541 22 49.9208861 22"></polygon>
                        <polygon id="Fill-29" fill="#278FFF" points="39.9367089 37.483 221.139541 37.483 221.139541 32 39.9367089 32"></polygon>
                        <polygon id="Fill-30" fill="#278FFF" points="19.9683544 59.484 221.139541 59.484 221.139541 54 19.9683544 54"></polygon>
                        <polygon id="Fill-31" fill="#278FFF" points="9.98417722 70.483 221.139541 70.483 221.139541 65 9.98417722 65"></polygon>
                        <polygon id="Fill-32" fill="#278FFF" points="0 80.484 221.139541 80.484 221.139541 75 0 75"></polygon>
                        <path d="M430.318038,1 L430.318038,6.484 L557.324759,6.484 C559.417443,4.46 561.70382,2.624 564.154935,1 L430.318038,1 Z" id="Fill-33" fill="#278FFF"></path>
                        <path d="M430.318038,11 L430.318038,16.483 L549.022916,16.483 C550.116184,14.572 551.344237,12.742 552.687109,11 L430.318038,11 Z" id="Fill-34" fill="#278FFF"></path>
                        <path d="M430.318038,22 L430.318038,27.484 L544.525044,27.484 C545.058199,25.611 545.711165,23.782 546.463972,22 L430.318038,22 Z" id="Fill-35" fill="#278FFF"></path>
                        <path d="M430.318038,33 L430.318038,38.484 L542.766831,38.484 C542.859684,36.632 543.060366,34.803 543.362886,33 L430.318038,33 Z" id="Fill-36" fill="#278FFF"></path>
                        <path d="M542.784802,43 L430.318038,43 L430.318038,48.484 L543.424788,48.484 C543.40482,48.371 543.378861,48.262 543.358892,48.148 C543.071348,46.424 542.885642,44.707 542.784802,43" id="Fill-37" fill="#278FFF"></path>
                        <path d="M388.384494,54 L388.384494,59.484 L546.218361,59.484 C545.459563,57.715 544.8056,55.885 544.258467,54 L388.384494,54 Z" id="Fill-38" fill="#278FFF"></path>
                        <path d="M388.384494,65 L388.384494,70.483 L552.546332,70.483 C551.186487,68.755 549.945454,66.921 548.827226,65 L388.384494,65 Z" id="Fill-39" fill="#278FFF"></path>
                        <path d="M388.384494,75 L388.384494,80.484 L564.268755,80.484 C561.779699,78.879 559.443402,77.04 557.28682,75 L388.384494,75 Z" id="Fill-40" fill="#278FFF"></path>
                    </g>
                    <g id="hacky-corners" transform="translate(0.624007, 0.003572)" fill="#000000" fill-opacity="0.01">
                        <rect id="Rectangle-3" x="0" y="0" width="1" height="1"></rect>
                        <rect id="Rectangle-3" x="0" y="205" width="1" height="1"></rect>
                        <rect id="Rectangle-3" x="629.003165" y="205" width="1" height="1"></rect>
                        <rect id="Rectangle-3" x="629.003165" y="0" width="1" height="1"></rect>
                    </g>
                </g>
            </g>
        </g>
    </g>
</svg>