<?xml version="1.0" encoding="UTF-8"?>
<svg width="595px" height="135px" viewBox="0 0 595 135" version="1.1" xmlns="http://www.w3.org/2000/svg" xmlns:xlink="http://www.w3.org/1999/xlink">
    <!-- Generator: Sketch 47.1 (45422) - http://www.bohemiancoding.com/sketch -->
    <title>Logo</title>
    <desc>Created with Sketch.</desc>
    <defs>
        <polygon id="path-1" points="565.798782 28.3641484 565.798782 0.0633241758 0.960930211 0.0633241758 0.960930211 28.3641484"></polygon>
    </defs>
    <g id="Welcome" stroke="none" stroke-width="1" fill="none" fill-rule="evenodd">
        <g id="04-copy-3" transform="translate(-422.000000, -150.000000)">
            <g id="Logo" transform="translate(720.000000, 221.500000) rotate(-1.000000) translate(-720.000000, -221.500000) translate(422.000000, 155.000000)">
                <g id="Purple" transform="translate(10.000000, 8.000000)">
                    <path d="M35.9237213,44.1862637 C36.5824567,43.7769231 37.4635152,43.5832418 38.5614075,43.5997253 C40.8628642,43.6381868 43.7654169,44.3373626 47.274555,45.7013736 C50.7823208,47.0667582 53.9071967,48.6340659 56.6519274,50.4046703 L64.9506206,36.6395604 C62.0027799,34.6038462 58.4730562,32.9527473 54.3614496,31.6807692 C50.2498431,30.4142857 46.0517775,29.7425824 41.7631358,29.6752747 C36.7443958,29.5942308 32.3006768,30.3222527 28.4333513,31.8565934 C24.5646534,33.3936813 21.5358431,35.6313187 19.3441756,38.5804945 C17.1525082,41.5282967 16.0257963,44.9664835 15.9626674,48.8923077 C15.9091452,52.2398352 16.7133513,54.9623626 18.3835199,57.0557692 C20.0468267,59.1505495 22.0367564,60.7123626 24.3464473,61.743956 C26.6588829,62.7755495 29.5559461,63.7906593 33.0431265,64.7906593 C36.0129251,65.6203297 38.1716557,66.3771978 39.5193185,67.0516484 C40.869726,67.7288462 41.5353232,68.6656593 41.5147377,69.8717033 C41.4982693,70.9706044 41.0659742,71.7879121 40.2219696,72.3222527 C39.3738478,72.857967 38.2183162,73.1175824 36.7553747,73.0942308 C33.9337916,73.0502747 30.535815,72.1436813 26.5628173,70.3771978 C22.591192,68.6120879 19.3688782,66.5063187 16.8972482,64.0585165 L8.52033021,77.6684066 C11.8222412,80.4953297 15.8542506,82.743956 20.6108689,84.417033 C25.3729766,86.0873626 30.179,86.9637363 35.0440351,87.0406593 C39.5906815,87.1134615 43.7736511,86.4733516 47.5847096,85.1244505 C51.3971405,83.7700549 54.4657494,81.6354396 56.7891639,78.7151099 C59.1098337,75.7947802 60.3065363,72.1862637 60.3737822,67.8950549 C60.4300492,64.3923077 59.6121194,61.5516484 57.919993,59.3771978 C56.2306112,57.2041209 54.2297026,55.575 51.9186393,54.4925824 C49.6089485,53.4074176 46.6844379,52.3126374 43.1478525,51.210989 C40.2823536,50.3799451 38.1894965,49.6134615 36.8665363,48.9101648 C35.5449485,48.2123626 34.8944473,47.2824176 34.9122881,46.1299451 C34.9260117,45.243956 35.2622412,44.5928571 35.9237213,44.1862637" id="Fill-1" fill="#BE56AA"></path>
                    <polygon id="Fill-3" fill="#BE56AA" points="70.9967133 31.4774725 67.8636033 45.7961538 83.4701419 46.0447802 74.6650459 86.5763736 92.8598656 86.8675824 101.664962 46.335989 117.349725 46.5873626 120.484207 32.2686813"></polygon>
                    <path d="M160.243415,32.906044 L153.384333,64.5159341 C152.817547,67.1766484 151.60712,69.3167582 149.751682,70.9348901 C147.894872,72.5557692 145.815739,73.3456044 143.517027,73.3098901 C141.528469,73.2782967 139.89261,72.6230769 138.606704,71.3456044 C137.319425,70.0695055 136.693626,68.3826923 136.726563,66.292033 C136.737542,65.6134615 136.828118,64.9321429 136.992802,64.2521978 L143.851884,32.6436813 L125.657064,32.3524725 L118.797982,63.960989 C118.399996,65.9486264 118.190024,67.6175824 118.169439,68.9774725 C118.107682,72.8524725 119.007954,76.2412088 120.870254,79.1491758 C122.731181,82.0585165 125.389453,84.314011 128.840952,85.9129121 C132.295195,87.5104396 136.346418,88.3483516 141.000109,88.4239011 C146.226076,88.5076923 150.962109,87.5887363 155.202718,85.6684066 C159.444699,83.743956 162.97854,81.0008242 165.808357,77.4348901 C168.636802,73.868956 170.56223,69.6574176 171.579153,64.8071429 L178.438235,33.1972527 L160.243415,32.906044 Z" id="Fill-5" fill="#BE56AA"></path>
                    <path d="M215.435558,67.0388736 C214.27042,69.4550824 212.682593,71.3135989 210.674822,72.6171703 C208.667052,73.9193681 206.434214,74.5539835 203.97768,74.5127747 L196.528481,74.3932692 L202.211445,47.7092033 L207.543085,47.7943681 C210.62679,47.8424451 213.028429,48.8644231 214.750748,50.8548077 C216.468949,52.8451923 217.303347,55.4880495 217.251197,58.7847527 C217.201792,61.8754121 216.596579,64.6240385 215.435558,67.0388736 M224.660598,36.9578297 C220.667015,34.879533 215.899417,33.7957418 210.357806,33.706456 L187.064649,33.3342033 L175.285637,88.1872253 L200.458935,88.5883242 C207.047661,88.695467 212.948832,87.5333791 218.16382,85.1034341 C223.381553,82.6748626 227.556289,79.1968407 230.686654,74.6638736 C233.819764,70.1364011 235.590115,64.8616758 235.997708,58.8493132 C236.338054,53.8836538 235.532476,49.5100275 233.580972,45.7394231 C231.629469,41.9646978 228.654181,39.0375 224.660598,36.9578297" id="Fill-7" fill="#BE56AA"></path>
                    <polygon id="Fill-9" fill="#BE56AA" points="236.456489 89.1644231 254.651309 89.4556319 266.508546 34.6053571 248.313726 34.3141484"></polygon>
                    <path d="M308.688057,68.9638736 C307.474886,71.2482143 305.878825,73.0421703 303.89713,74.3443681 C301.914062,75.6479396 299.796502,76.2798077 297.54994,76.2440934 C295.668427,76.2138736 293.939247,75.6493132 292.361027,74.5517857 C290.782807,73.4570055 289.539444,71.9570055 288.629565,70.0572802 C287.716942,68.1575549 287.279158,66.0586538 287.317584,63.7550824 C287.360127,61.0353022 288.027097,58.5449176 289.319865,56.2866758 C290.609889,54.0311813 292.271823,52.2660714 294.307041,50.9872253 C296.339514,49.7125 298.481776,49.0916209 300.729711,49.1273352 C303.604816,49.1740385 305.976263,50.3498626 307.850914,52.6561813 C309.721448,54.9666209 310.631326,57.8718407 310.575059,61.3773352 C310.531144,64.1506868 309.901228,66.679533 308.688057,68.9638736 M316.562689,37.5668956 C312.442849,35.2756868 307.688975,34.0875 302.305186,34.0009615 C296.136404,33.9034341 290.491865,35.1603022 285.379804,37.7743132 C280.263626,40.3869505 276.202797,44.0504121 273.201434,48.7660714 C270.195954,53.4831044 268.647926,58.7976648 268.553233,64.7097527 C268.473636,69.734478 269.548198,74.2537088 271.786526,78.2646978 C274.024853,82.2811813 277.204624,85.4487637 281.324465,87.7619505 C285.445678,90.0778846 290.198179,91.2811813 295.583341,91.3677198 C301.753495,91.4666209 307.393917,90.1822802 312.510095,87.5160714 C317.6249,84.8471154 321.685729,81.1438187 324.689837,76.4034341 C327.696689,71.6644231 329.244718,66.3347527 329.339411,60.4212912 C329.417636,55.3979396 328.338956,50.9048077 326.103373,46.9446429 C323.865045,42.9817308 320.685275,39.8581044 316.562689,37.5668956" id="Fill-11" fill="#BE56AA"></path>
                    <polygon id="Fill-13" fill="#BE56AA" points="404.2228 36.8096154 389.533001 72.6118132 387.753044 36.5458791 370.030318 36.3412088 355.337774 72.0651099 353.560561 35.9978022 334.1114 35.6873626 341.936627 90.8535714 360.680393 91.153022 374.537165 58.5527473 376.131854 91.3989011 394.87562 91.6997253 422.808744 37.1063187"></polygon>
                    <path d="M443.770801,55.6581044 L446.419466,71.7157967 L434.96845,71.534478 L443.770801,55.6581044 Z M423.57919,92.1581044 L427.858225,84.4534341 L448.484876,84.7831044 L449.772155,92.5784341 L469.302286,92.8902473 L456.926295,37.6526099 L438.260754,37.354533 L405.068726,91.8627747 L423.57919,92.1581044 Z" id="Fill-15" fill="#BE56AA"></path>
                    <polygon id="Fill-17" fill="#BE56AA" points="498.706997 93.3604396 529.701868 38.8164835 511.115925 38.5197802 493.286154 74.2725275 488.449939 38.1571429 469.000777 37.8453297 479.885007 93.0596154"></polygon>
                    <polygon id="Fill-19" fill="#BE56AA" points="522.943106 93.7480769 566.696858 94.4486264 569.650188 80.6766484 544.022638 80.2673077 545.544591 73.4596154 571.110385 73.868956 574.062343 60.096978 548.511645 59.689011 550.028109 52.960989 575.506071 53.368956 578.458029 39.596978 534.800343 38.8978022"></polygon>
                    <polygon id="Fill-21" fill="#BE56AA" points="487.856665 104.45 458.921714 103.987088 345.160862 102.167033 316.225911 101.704121 235.559649 100.414286 92.1982482 98.1203297 4.0347541 96.7082418 0 116.037912 87.9809696 117.445879 231.491958 119.741209 312.132145 121.031044 349.693785 121.632692 446.190281 123.176648 483.805443 123.778297 560.146009 124.999451 564.290553 105.672527"></polygon>
                    <g id="Group-25" transform="translate(19.213115, 0.000000)">
                        <mask id="mask-2" fill="white">
                            <use xlink:href="#path-1"></use>
                        </mask>
                        <g id="Clip-24"></g>
                        <polygon id="Fill-23" fill="#BE56AA" mask="url(#mask-2)" points="89.0009115 20.8009615 231.990401 23.0894231 384.998157 25.5372253 412.227258 25.9726648 561.654513 28.3641484 565.799057 9.03722527 425.45137 6.79134615 379.855904 6.06195055 236.059464 3.76112637 93.1509443 1.47403846 4.99568431 0.0633241758 0.960930211 19.3929945"></polygon>
                    </g>
                </g>
                <path d="M41.1514887,50.9613087 C40.4939126,51.374475 40.1644382,52.0278543 40.1603198,52.915956 C40.1534557,54.066233 40.8151502,54.9872782 42.146776,55.6722284 C43.4756561,56.3612965 45.5774284,57.1025251 48.4520927,57.9027775 C52.0021796,58.9638325 54.9399932,60.0262602 57.261415,61.0859426 C59.5855825,62.1415071 61.6036133,63.7461298 63.3182531,65.9011834 C65.0328929,68.0534917 65.8840352,70.8852595 65.8661886,74.3841331 C65.8428509,78.6736506 64.6869448,82.2919444 62.3984704,85.2362692 C60.1058775,88.1792214 57.0596119,90.3452561 53.2610464,91.7398641 C49.4624809,93.130354 45.2863926,93.8166768 40.7369,93.7919692 C35.8702883,93.7686342 31.0530977,92.9450469 26.2716001,91.3280704 C21.4955938,89.7083486 17.4375672,87.5052524 14.1057572,84.7160365 L22.3343808,71.0252694 C24.8328952,73.4452436 28.0809638,75.5151931 32.0717227,77.235118 C36.0666001,78.955043 39.4739147,79.8239276 42.2977851,79.8376541 C43.7598278,79.84589 44.9129883,79.5741061 45.7558937,79.0291658 C46.5946806,78.4855982 47.0175061,77.6633835 47.0229974,76.565267 C47.0298614,75.3614568 46.3530661,74.4308031 44.9967297,73.7705606 C43.6403933,73.1116907 41.474099,72.3786979 38.4937283,71.5798182 C34.9958082,70.6189663 32.0854508,69.636152 29.7626562,68.6313754 C27.4398615,67.6265989 25.4328132,66.0864905 23.7456296,64.012423 C22.0529547,61.9369829 21.2169134,59.2273805 21.2347599,55.8808705 C21.2553521,51.9578494 22.3453633,48.5097637 24.5047936,45.5407312 C26.6642238,42.5716988 29.6706779,40.2985977 33.522783,38.7241732 C37.3762609,37.1483761 41.8118103,36.3714587 46.8335496,36.3975389 C51.1235811,36.4195013 55.331244,37.0426824 59.4565383,38.2657096 C63.5832055,39.4914821 67.1332923,41.1015954 70.1040534,43.1042853 L61.9509343,56.9487888 C59.1874676,55.2110195 56.0451053,53.6777743 52.5211018,52.350426 C48.9957255,51.0271957 46.0839953,50.3600899 43.7817928,50.3477361 C42.6835447,50.3422455 41.8063191,50.5453971 41.1514887,50.9613087 Z M76.093761,37.8808198 L125.601411,38.1320139 L122.625159,52.4734151 L106.932567,52.3938016 L98.5652893,92.9884225 L80.3632004,92.8964552 L88.7291051,52.3004617 L73.116136,52.2208483 L76.093761,37.8808198 Z M165.380094,38.3339301 L183.583555,38.4258973 L177.066826,70.0873406 C176.10174,74.946506 174.22099,79.1756271 171.43144,82.7692133 C168.640517,86.3627995 165.13436,89.1424068 160.912969,91.1107806 C156.692951,93.0764091 151.966366,94.0454969 146.73596,94.0194166 C142.079388,93.9960816 138.018616,93.2026925 134.546779,91.6419944 C131.076315,90.082669 128.393844,87.8576105 126.500739,84.9723095 C124.606261,82.0856358 123.667259,78.7089276 123.687851,74.8366944 C123.694715,73.4777753 123.885536,71.8072656 124.261686,69.8196747 L130.778415,38.1582314 L148.981877,38.2501987 L142.465148,69.911642 C142.305902,70.5911016 142.224906,71.2719338 142.220787,71.9500207 C142.209805,74.0419326 142.855026,75.7193055 144.157822,76.9807668 C145.456501,78.2436008 147.101127,78.8791357 149.090329,78.8901168 C151.389786,78.901098 153.458611,78.0884918 155.300922,76.449553 C157.139115,74.8106141 158.325222,72.6596785 158.863364,69.9940007 L165.380094,38.3339301 Z M229.858649,41.6807146 C233.875492,43.716348 236.883319,46.6071396 238.876639,50.35858 C240.869959,54.1059025 241.72522,58.4667975 241.43693,63.4316567 C241.0951,69.445217 239.38046,74.7340205 236.297129,79.2925765 C233.21517,83.8552505 229.077521,87.3760864 223.885553,89.860575 C218.693585,92.3450635 212.805603,93.5694634 206.211996,93.5365199 L181.029168,93.4088638 L192.213451,38.4700965 L215.51553,38.5895167 C221.06031,38.6183422 225.841807,39.6478264 229.858649,41.6807146 Z M220.958722,71.8404836 C222.092663,69.4136462 222.669243,66.6614918 222.684344,63.5730392 C222.70219,60.2773171 221.838693,57.6459555 220.09797,55.6762091 C218.354501,53.70509 215.939728,52.7112946 212.855024,52.6961955 L207.520284,52.6687426 L202.126513,79.3955249 L209.579499,79.433959 C212.036829,79.4463128 214.263527,78.7888156 216.25822,77.4655852 C218.25154,76.1409822 219.820662,74.2659484 220.958722,71.8404836 Z M242.22657,93.7196308 L253.489104,38.7836088 L271.692566,38.875576 L260.430032,93.811598 L242.22657,93.7196308 Z M321.791622,41.2870398 C325.941627,43.532688 329.155376,46.6197679 331.438359,50.5551429 C333.717224,54.4863999 334.845674,58.9653424 334.81959,63.9851074 C334.789388,69.8957193 333.298517,75.2366833 330.345602,80.0066268 C327.389942,84.7765702 323.368981,88.5211474 318.28272,91.2431036 C313.193713,93.9636872 307.565192,95.3075072 301.393037,95.2759364 C296.004758,95.2484835 291.238361,94.0982064 287.089729,91.8278506 C282.943843,89.5616128 279.730094,86.4333534 277.448484,82.4430727 C275.164128,78.4582825 274.039796,73.956005 274.06588,68.9348674 C274.096082,63.0242555 275.586953,57.6983905 278.539868,52.9504094 C281.492782,48.2065463 285.513743,44.5031484 290.60275,41.8347254 C295.689012,39.167675 301.318906,37.8485626 307.49106,37.8815061 C312.879339,37.9075863 317.645736,39.0427643 321.791622,41.2870398 Z M314.256268,72.7467042 C315.445121,70.4502681 316.047785,67.917737 316.061513,65.1463655 C316.07936,61.6420013 315.138985,58.7484644 313.241761,56.4616369 C311.341792,54.1775546 308.957221,53.0272776 306.081184,53.0121785 C303.831148,53.0011973 301.696428,53.6463407 299.677025,54.9407455 C297.654876,56.2406409 296.011622,58.0223349 294.744518,60.2913181 C293.477414,62.5616739 292.836312,65.0557709 292.823957,67.7749819 C292.811602,70.0769085 293.271493,72.1701931 294.205004,74.0575808 C295.134396,75.9449684 296.394636,77.430171 297.985723,78.5076978 C299.57681,79.5879699 301.312042,80.1342828 303.194164,80.1438913 C305.4442,80.1534998 307.554209,79.5001205 309.522819,78.1755175 C311.491428,76.8509145 313.068787,75.0431403 314.256268,72.7467042 Z M409.466688,39.5752135 L428.0614,39.669926 L400.715023,94.524962 L381.96381,94.4302494 L380.010302,61.6253923 L366.504596,94.3520086 L347.753383,94.2559234 L339.324329,39.2183256 L358.782539,39.3185288 L360.951579,75.3367492 L375.259006,39.4805009 L392.990221,39.4914821 L395.162007,75.5110752 L409.466688,39.5752135 Z M429.431328,94.6708742 L410.913492,94.5775343 L443.520477,39.7499513 L462.192067,39.8432912 L475.171987,94.9042239 L455.635526,94.8053935 L454.262716,87.0293562 L433.628008,86.9250351 L429.431328,94.6708742 Z M449.231367,57.9786848 L440.599138,73.9384351 L452.055238,73.9960862 L449.231367,57.9786848 Z M504.592817,95.0534305 L485.761981,94.958718 L474.272933,39.9046484 L493.731144,40.0034789 L498.960177,76.0381711 L516.405848,40.1187811 L535.00056,40.2148663 L504.592817,95.0534305 Z M528.838153,95.1768314 L540.100687,40.2408093 L583.779386,40.4631779 L580.976107,54.2555209 L555.48577,54.1264922 L554.041574,60.8648094 L579.60467,60.9952107 L576.801392,74.7875537 L551.224567,74.658525 L549.777625,81.4764557 L575.416227,81.606857 L572.611576,95.4005726 L528.838153,95.1768314 Z M493.859639,106.25312 L570.326533,106.641579 L566.39206,126 L490.017143,125.611541 L452.385673,125.419371 L355.848295,124.927964 L318.268992,124.737166 L237.594434,124.326745 L94.0190915,123.596498 L6,123.149015 L9.8246489,103.790594 L98.0276969,104.239449 L241.452031,104.968324 L322.152672,105.378745 L351.102491,105.526991 L464.912565,106.106247 L493.859639,106.25312 Z M113.205211,26.8059033 L25.1270884,26.3584208 L28.9517373,7 L117.146548,7.44885511 L260.117855,8.17635728 L403.977369,8.90797738 L449.59173,9.13995448 L590,9.85373019 L586.065526,29.212151 L436.574745,28.4503327 L409.331329,28.3130682 L256.258886,27.5334055 L113.205211,26.8059033 Z" id="Black" fill="#543141"></path>
                <g id="Yellow" transform="translate(-0.000000, 0.000000)" fill="#FFE180">
                    <path d="M34.8997628,46.5070726 C35.5557533,46.0863035 36.437327,45.8765999 37.544484,45.8697913 C39.8667457,45.8561742 42.8076315,46.4880086 46.3768288,47.7652945 C49.9418743,49.0425805 53.1277185,50.5309318 55.9315935,52.2262633 L64,38.4062474 C60.9843812,36.4508288 57.3888889,34.8916685 53.216291,33.7192344 C49.0436932,32.5495237 44.7949783,31.9762429 40.4701463,32.0007538 C35.409055,32.0266263 30.9458284,32.8436535 27.0790826,34.4491121 C23.2123369,36.0518472 20.2064057,38.3368001 18.061289,41.3066941 C15.9161724,44.2738648 14.8546856,47.7067409 14.8754448,51.598514 C14.8948201,54.9183681 15.7667062,57.5982175 17.495255,59.6380622 C19.2168841,61.6779069 21.2582048,63.1839604 23.6095295,64.1562229 C25.962238,65.1284853 28.9058917,66.0735135 32.4446422,66.988584 C35.4561091,67.7484193 37.646896,68.4524245 39.0225386,69.0937909 C40.3967972,69.7337955 41.0887703,70.6488661 41.09569,71.8444493 C41.0998418,72.9324572 40.683274,73.7522079 39.8432187,74.3009779 C39.0003954,74.8497478 37.8420324,75.1316222 36.3667457,75.1397925 C33.5199684,75.156133 30.0753262,74.3309355 26.0300514,72.6655616 C21.9889284,71.0015495 18.6923685,68.9834922 16.1472914,66.610028 L8,80.2775322 C11.3892843,83.0091266 15.5023725,85.1510997 20.3351127,86.7075366 C25.1720047,88.2612501 30.0365757,89.0265323 34.944049,88.9992981 C39.5290629,88.9747872 43.7321076,88.2489947 47.5462633,86.8300907 C51.3604191,85.4071016 54.4078687,83.2256388 56.6858442,80.2816173 C58.9624357,77.3375958 60.088968,73.7358673 60.0654409,69.4805171 C60.0460656,66.0081513 59.1575722,63.209833 57.4068802,61.0923707 C55.6548043,58.9735467 53.602412,57.4021309 51.2483195,56.3794852 C48.8969949,55.3527542 45.9242784,54.3314702 42.3343219,53.315633 C39.4266509,52.5517125 37.3022934,51.8381754 35.9529458,51.1695747 C34.6035983,50.5050592 33.9282325,49.598159 33.9213128,48.4556826 C33.9171609,47.5760165 34.2396204,46.9237565 34.8997628,46.5070726" id="Fill-27"></path>
                    <polygon id="Fill-29" points="69.8072716 33.2760454 67 47.5853107 82.5136539 47.4964842 74.6320139 88 92.7196821 87.8988745 100.601322 47.3967252 116.194092 47.3092653 119 33"></polygon>
                    <path d="M157.950528,33.1016073 L151.825142,64.8387785 C151.320138,67.5107754 150.165843,69.6761089 148.360895,71.3320329 C146.553226,72.9920762 144.508708,73.8269036 142.228703,73.8406343 C140.256329,73.8516189 138.62017,73.2337368 137.318866,71.9842418 C136.013478,70.73612 135.35602,69.0637191 135.34513,66.9725314 C135.341046,66.2956072 135.414551,65.6131907 135.565644,64.9307743 L141.69103,33.19223 L123.64292,33.2952103 L117.516172,65.0323816 C117.163622,67.0247081 116.992111,68.6984821 117.000278,70.0578227 C117.022058,73.931257 117.988507,77.298028 119.895544,80.1650009 C121.802581,83.0319739 124.486862,85.2288881 127.944302,86.7516242 C131.403104,88.2757334 135.439053,89.0254304 140.056233,88.999342 C145.239671,88.9691344 149.916744,87.9489424 154.080645,85.9373929 C158.245908,83.9244703 161.691097,81.1069279 164.420297,77.4820195 C167.150858,73.8584842 168.969418,69.6074553 169.873252,64.7371712 L176,33 L157.950528,33.1016073 Z" id="Fill-31"></path>
                    <path d="M214.616167,66.0807373 C213.506432,68.5104346 211.962393,70.395639 209.986791,71.7363503 C208.011189,73.0770617 205.795829,73.7556258 203.342082,73.7693065 L195.905488,73.8103487 L201.002048,47.1178799 L206.326036,47.0877823 C209.404523,47.0699974 211.824019,48.0344887 213.585894,49.9785202 C215.34366,51.9252878 216.234188,54.5383069 216.250628,57.8230497 C216.268439,60.9012136 215.724532,63.6510399 214.616167,66.0807373 M223.177566,35.9284123 C219.146899,33.9460748 214.365449,32.9692708 208.830475,33.0007365 L185.575363,33.1307034 L175,88 L200.132071,87.8604566 C206.711018,87.8248867 212.574803,86.5402663 217.728905,84.0079635 C222.884377,81.4783969 226.975326,77.9255118 230.003121,73.345204 C233.030916,68.7690004 234.685929,63.4800308 234.964047,57.4837677 C235.196955,52.5313441 234.298206,48.1959213 232.269172,44.4816036 C230.240139,40.7645497 227.208233,37.9148541 223.177566,35.9284123" id="Fill-33"></path>
                    <polygon id="Fill-35" points="236 87 254.280091 86.8987134 265 32 246.719909 32.1026554"></polygon>
                    <path d="M308.429154,65.51392 C307.26061,67.8056387 305.696112,69.6166819 303.731523,70.9497732 C301.766934,72.2842261 299.653345,72.9568994 297.393516,72.9691545 C295.500667,72.9786864 293.74992,72.4571604 292.141275,71.4018532 C290.53125,70.3506311 289.249576,68.8895413 288.293495,67.0267539 C287.334654,65.1639665 286.850405,63.0928411 286.837988,60.8092925 C286.822812,58.1117912 287.439505,55.6307981 288.688068,53.3649515 C289.93801,51.1018282 291.56873,49.3152953 293.587124,48.0067144 C295.60276,46.7008569 297.741182,46.0377154 300.002391,46.0240986 C302.89133,46.00912 305.301539,47.1257031 307.235776,49.3711244 C309.165875,51.6192691 310.142651,54.4788112 310.161966,57.9551972 C310.178521,60.7058043 309.599078,63.223563 308.429154,65.51392 M315.663919,34.2278069 C311.473991,32.0450232 306.671509,30.9706524 301.257852,31.0006095 C295.055048,31.0346516 289.409613,32.4017851 284.327066,35.1020097 C279.24314,37.8008727 275.240842,41.5182774 272.325689,46.2555853 C269.407778,50.9969783 267.967447,56.2939395 268.000558,62.1573623 C268.02953,67.1384122 269.207732,71.593851 271.54482,75.5236788 C273.880529,79.4548682 277.143348,82.5254716 281.333275,84.7300424 C285.527342,86.9373365 290.329824,88.0280475 295.744861,87.9994521 C301.947665,87.9640482 307.588961,86.5724045 312.672887,83.819074 C317.755434,81.0657435 321.756353,77.3074883 324.674264,72.54567 C327.592176,67.7838517 329.033886,62.4691886 328.999396,56.6057657 C328.971803,51.6260776 327.789463,47.1951491 325.456513,43.3184272 C323.120804,39.4403435 319.856606,36.4105906 315.663919,34.2278069" id="Fill-37"></path>
                    <polygon id="Fill-39" points="403.350191 32.1034935 389.388651 67.902721 386.823528 32.1947312 369.042529 32.3703979 355.076858 68.093367 352.515865 32.3840154 333 32.4915942 342.043333 87 360.850106 86.8965065 374.044725 54.2892372 376.355126 86.8107158 395.161899 86.7072223 422 32"></polygon>
                    <path d="M442.771075,49.1817392 L445.754369,65.0868345 L434.344841,65.1496573 L442.771075,49.1817392 Z M423.442555,85.8975715 L427.540141,78.144418 L448.092331,78.0296981 L449.541594,85.7500745 L469,85.6421832 L455.487674,31 L436.889254,31.1051599 L405,86 L423.442555,85.8975715 Z" id="Fill-41"></path>
                    <polygon id="Fill-43" points="498.044692 85.8948166 528 31 509.323266 31.1038174 492.18546 67.0328341 486.545483 31.2294911 467 31.3387726 479.129397 86"></polygon>
                    <polygon id="Fill-45" points="523 86 566.488596 85.7569875 569.126335 72.0090354 543.655924 72.1510202 545.021165 65.356228 570.431566 65.2128779 573.070669 51.4649258 547.673907 51.6082758 549.037784 44.889937 574.359533 44.7479521 577 31 533.605511 31.2430125"></polygon>
                    <polygon id="Fill-47" points="487.550641 97.4168393 458.608313 97.574997 344.822295 98.1955648 315.879968 98.3537224 235.196385 98.7946875 91.8023669 99.5760936 3.61933501 100.058609 -3.41060513e-13 119 88.0032317 118.518825 231.546854 117.736079 312.202987 117.295114 349.774347 117.091385 446.29132 116.5633 483.914836 116.358231 560.272236 115.941391 564 97"></polygon>
                    <polygon id="Fill-49" points="105.972926 21.5202242 248.857972 20.7389133 401.749976 19.9039961 428.961278 19.7565789 578.275843 18.9390838 582 0 441.757241 0.766569201 396.195278 1.01583821 252.505343 1.79982943 109.703939 2.57980019 21.6144617 3.06225634 18 22"></polygon>
                </g>
            </g>
        </g>
    </g>
</svg>