<?xml version="1.0" encoding="UTF-8"?>
<svg width="582px" height="125px" viewBox="0 0 582 125" version="1.1" xmlns="http://www.w3.org/2000/svg" xmlns:xlink="http://www.w3.org/1999/xlink">
    <!-- Generator: Sketch 47.1 (45422) - http://www.bohemiancoding.com/sketch -->
    <title>Black</title>
    <desc>Created with Sketch.</desc>
    <defs></defs>
    <g id="Welcome" stroke="none" stroke-width="1" fill="none" fill-rule="evenodd">
        <g id="04-copy-3" transform="translate(-429.000000, -159.000000)" fill="#543141">
            <g id="Logo" transform="translate(720.000000, 221.500000) rotate(-1.000000) translate(-720.000000, -221.500000) translate(422.000000, 155.000000)">
                <path d="M41.1514887,50.9613087 C40.4939126,51.374475 40.1644382,52.0278543 40.1603198,52.915956 C40.1534557,54.066233 40.8151502,54.9872782 42.146776,55.6722284 C43.4756561,56.3612965 45.5774284,57.1025251 48.4520927,57.9027775 C52.0021796,58.9638325 54.9399932,60.0262602 57.261415,61.0859426 C59.5855825,62.1415071 61.6036133,63.7461298 63.3182531,65.9011834 C65.0328929,68.0534917 65.8840352,70.8852595 65.8661886,74.3841331 C65.8428509,78.6736506 64.6869448,82.2919444 62.3984704,85.2362692 C60.1058775,88.1792214 57.0596119,90.3452561 53.2610464,91.7398641 C49.4624809,93.130354 45.2863926,93.8166768 40.7369,93.7919692 C35.8702883,93.7686342 31.0530977,92.9450469 26.2716001,91.3280704 C21.4955938,89.7083486 17.4375672,87.5052524 14.1057572,84.7160365 L22.3343808,71.0252694 C24.8328952,73.4452436 28.0809638,75.5151931 32.0717227,77.235118 C36.0666001,78.955043 39.4739147,79.8239276 42.2977851,79.8376541 C43.7598278,79.84589 44.9129883,79.5741061 45.7558937,79.0291658 C46.5946806,78.4855982 47.0175061,77.6633835 47.0229974,76.565267 C47.0298614,75.3614568 46.3530661,74.4308031 44.9967297,73.7705606 C43.6403933,73.1116907 41.474099,72.3786979 38.4937283,71.5798182 C34.9958082,70.6189663 32.0854508,69.636152 29.7626562,68.6313754 C27.4398615,67.6265989 25.4328132,66.0864905 23.7456296,64.012423 C22.0529547,61.9369829 21.2169134,59.2273805 21.2347599,55.8808705 C21.2553521,51.9578494 22.3453633,48.5097637 24.5047936,45.5407312 C26.6642238,42.5716988 29.6706779,40.2985977 33.522783,38.7241732 C37.3762609,37.1483761 41.8118103,36.3714587 46.8335496,36.3975389 C51.1235811,36.4195013 55.331244,37.0426824 59.4565383,38.2657096 C63.5832055,39.4914821 67.1332923,41.1015954 70.1040534,43.1042853 L61.9509343,56.9487888 C59.1874676,55.2110195 56.0451053,53.6777743 52.5211018,52.350426 C48.9957255,51.0271957 46.0839953,50.3600899 43.7817928,50.3477361 C42.6835447,50.3422455 41.8063191,50.5453971 41.1514887,50.9613087 Z M76.093761,37.8808198 L125.601411,38.1320139 L122.625159,52.4734151 L106.932567,52.3938016 L98.5652893,92.9884225 L80.3632004,92.8964552 L88.7291051,52.3004617 L73.116136,52.2208483 L76.093761,37.8808198 Z M165.380094,38.3339301 L183.583555,38.4258973 L177.066826,70.0873406 C176.10174,74.946506 174.22099,79.1756271 171.43144,82.7692133 C168.640517,86.3627995 165.13436,89.1424068 160.912969,91.1107806 C156.692951,93.0764091 151.966366,94.0454969 146.73596,94.0194166 C142.079388,93.9960816 138.018616,93.2026925 134.546779,91.6419944 C131.076315,90.082669 128.393844,87.8576105 126.500739,84.9723095 C124.606261,82.0856358 123.667259,78.7089276 123.687851,74.8366944 C123.694715,73.4777753 123.885536,71.8072656 124.261686,69.8196747 L130.778415,38.1582314 L148.981877,38.2501987 L142.465148,69.911642 C142.305902,70.5911016 142.224906,71.2719338 142.220787,71.9500207 C142.209805,74.0419326 142.855026,75.7193055 144.157822,76.9807668 C145.456501,78.2436008 147.101127,78.8791357 149.090329,78.8901168 C151.389786,78.901098 153.458611,78.0884918 155.300922,76.449553 C157.139115,74.8106141 158.325222,72.6596785 158.863364,69.9940007 L165.380094,38.3339301 Z M229.858649,41.6807146 C233.875492,43.716348 236.883319,46.6071396 238.876639,50.35858 C240.869959,54.1059025 241.72522,58.4667975 241.43693,63.4316567 C241.0951,69.445217 239.38046,74.7340205 236.297129,79.2925765 C233.21517,83.8552505 229.077521,87.3760864 223.885553,89.860575 C218.693585,92.3450635 212.805603,93.5694634 206.211996,93.5365199 L181.029168,93.4088638 L192.213451,38.4700965 L215.51553,38.5895167 C221.06031,38.6183422 225.841807,39.6478264 229.858649,41.6807146 Z M220.958722,71.8404836 C222.092663,69.4136462 222.669243,66.6614918 222.684344,63.5730392 C222.70219,60.2773171 221.838693,57.6459555 220.09797,55.6762091 C218.354501,53.70509 215.939728,52.7112946 212.855024,52.6961955 L207.520284,52.6687426 L202.126513,79.3955249 L209.579499,79.433959 C212.036829,79.4463128 214.263527,78.7888156 216.25822,77.4655852 C218.25154,76.1409822 219.820662,74.2659484 220.958722,71.8404836 Z M242.22657,93.7196308 L253.489104,38.7836088 L271.692566,38.875576 L260.430032,93.811598 L242.22657,93.7196308 Z M321.791622,41.2870398 C325.941627,43.532688 329.155376,46.6197679 331.438359,50.5551429 C333.717224,54.4863999 334.845674,58.9653424 334.81959,63.9851074 C334.789388,69.8957193 333.298517,75.2366833 330.345602,80.0066268 C327.389942,84.7765702 323.368981,88.5211474 318.28272,91.2431036 C313.193713,93.9636872 307.565192,95.3075072 301.393037,95.2759364 C296.004758,95.2484835 291.238361,94.0982064 287.089729,91.8278506 C282.943843,89.5616128 279.730094,86.4333534 277.448484,82.4430727 C275.164128,78.4582825 274.039796,73.956005 274.06588,68.9348674 C274.096082,63.0242555 275.586953,57.6983905 278.539868,52.9504094 C281.492782,48.2065463 285.513743,44.5031484 290.60275,41.8347254 C295.689012,39.167675 301.318906,37.8485626 307.49106,37.8815061 C312.879339,37.9075863 317.645736,39.0427643 321.791622,41.2870398 Z M314.256268,72.7467042 C315.445121,70.4502681 316.047785,67.917737 316.061513,65.1463655 C316.07936,61.6420013 315.138985,58.7484644 313.241761,56.4616369 C311.341792,54.1775546 308.957221,53.0272776 306.081184,53.0121785 C303.831148,53.0011973 301.696428,53.6463407 299.677025,54.9407455 C297.654876,56.2406409 296.011622,58.0223349 294.744518,60.2913181 C293.477414,62.5616739 292.836312,65.0557709 292.823957,67.7749819 C292.811602,70.0769085 293.271493,72.1701931 294.205004,74.0575808 C295.134396,75.9449684 296.394636,77.430171 297.985723,78.5076978 C299.57681,79.5879699 301.312042,80.1342828 303.194164,80.1438913 C305.4442,80.1534998 307.554209,79.5001205 309.522819,78.1755175 C311.491428,76.8509145 313.068787,75.0431403 314.256268,72.7467042 Z M409.466688,39.5752135 L428.0614,39.669926 L400.715023,94.524962 L381.96381,94.4302494 L380.010302,61.6253923 L366.504596,94.3520086 L347.753383,94.2559234 L339.324329,39.2183256 L358.782539,39.3185288 L360.951579,75.3367492 L375.259006,39.4805009 L392.990221,39.4914821 L395.162007,75.5110752 L409.466688,39.5752135 Z M429.431328,94.6708742 L410.913492,94.5775343 L443.520477,39.7499513 L462.192067,39.8432912 L475.171987,94.9042239 L455.635526,94.8053935 L454.262716,87.0293562 L433.628008,86.9250351 L429.431328,94.6708742 Z M449.231367,57.9786848 L440.599138,73.9384351 L452.055238,73.9960862 L449.231367,57.9786848 Z M504.592817,95.0534305 L485.761981,94.958718 L474.272933,39.9046484 L493.731144,40.0034789 L498.960177,76.0381711 L516.405848,40.1187811 L535.00056,40.2148663 L504.592817,95.0534305 Z M528.838153,95.1768314 L540.100687,40.2408093 L583.779386,40.4631779 L580.976107,54.2555209 L555.48577,54.1264922 L554.041574,60.8648094 L579.60467,60.9952107 L576.801392,74.7875537 L551.224567,74.658525 L549.777625,81.4764557 L575.416227,81.606857 L572.611576,95.4005726 L528.838153,95.1768314 Z M493.859639,106.25312 L570.326533,106.641579 L566.39206,126 L490.017143,125.611541 L452.385673,125.419371 L355.848295,124.927964 L318.268992,124.737166 L237.594434,124.326745 L94.0190915,123.596498 L6,123.149015 L9.8246489,103.790594 L98.0276969,104.239449 L241.452031,104.968324 L322.152672,105.378745 L351.102491,105.526991 L464.912565,106.106247 L493.859639,106.25312 Z M113.205211,26.8059033 L25.1270884,26.3584208 L28.9517373,7 L117.146548,7.44885511 L260.117855,8.17635728 L403.977369,8.90797738 L449.59173,9.13995448 L590,9.85373019 L586.065526,29.212151 L436.574745,28.4503327 L409.331329,28.3130682 L256.258886,27.5334055 L113.205211,26.8059033 Z" id="Black"></path>
            </g>
        </g>
    </g>
</svg>