<?xml version="1.0" encoding="UTF-8"?>
<svg width="632px" height="207px" viewBox="0 0 632 207" version="1.1" xmlns="http://www.w3.org/2000/svg" xmlns:xlink="http://www.w3.org/1999/xlink">
    <!-- Generator: Sketch 49.2 (51160) - http://www.bohemiancoding.com/sketch -->
    <title>Group 4</title>
    <desc>Created with Sketch.</desc>
    <defs>
        <polygon id="path-1" points="0.991758738 0.454487067 81.536 0.454487067 81.536 80.9999413 0.991758738 80.9999413"></polygon>
        <polygon id="path-3" points="0 207.01 631.536 207.01 631.536 0 0 0"></polygon>
    </defs>
    <g id="Welcome" stroke="none" stroke-width="1" fill="none" fill-rule="evenodd">
        <g id="World-Cup-2018-v2" transform="translate(-404.000000, -100.000000)">
            <g id="Group-4" transform="translate(404.000000, 100.000000)">
                <g id="Group-3" transform="translate(550.000000, 126.000000)">
                    <mask id="mask-2" fill="white">
                        <use xlink:href="#path-1"></use>
                    </mask>
                    <g id="Clip-2"></g>
                    <path d="M34.6175,1.0132 C12.6835,4.6852 -2.1205,25.4412 1.5505,47.3742 C5.2215,69.3082 25.9775,84.1122 47.9105,80.4412 C69.8445,76.7702 84.6485,56.0142 80.9775,34.0802 C77.3065,12.1472 56.5505,-2.6578 34.6175,1.0132" id="Fill-1" fill="#278FFF" mask="url(#mask-2)"></path>
                </g>
                <polygon id="Fill-4" fill="#FF5050" points="289.24 206.329 225 206.329 225 126 289.24 126 289.24 155.634 267.828 155.634 267.828 147.183 246.416 147.183 246.416 185.146 267.828 185.146 267.828 176.699 289.24 176.699"></polygon>
                <polygon id="Fill-6" fill="#FF5050" points="357.24 206.212 293 206.212 293 126 314.416 126 314.416 185.147 335.828 185.147 335.828 126 357.24 126"></polygon>
                <mask id="mask-4" fill="white">
                    <use xlink:href="#path-3"></use>
                </mask>
                <g id="Clip-9"></g>
                <path d="M385.696,155.634 L407.108,155.634 L407.108,147.183 L385.696,147.183 L385.696,155.634 Z M428.52,176.813 L385.696,176.813 L385.696,206.33 L364.28,206.33 L364.28,176.813 L360,176.813 L360,155.634 L364.28,155.634 L364.28,126 L428.52,126 L428.52,176.813 Z" id="Fill-8" fill="#FF5050" mask="url(#mask-4)"></path>
                <polygon id="Fill-10" fill="#FF5050" mask="url(#mask-4)" points="150 123.329 150 43 171.416 43 171.416 102.146 185.111 102.146 185.111 43 206.523 43 206.523 102.146 220.22 102.146 220.22 43 241.632 43 241.632 123.329"></polygon>
                <path d="M265.416,103.146 L286.828,103.146 L286.828,65.065 L265.416,65.065 L265.416,103.146 Z M244,124.212 L308.24,124.212 L308.24,44 L244,44 L244,124.212 Z" id="Fill-11" fill="#FF5050" mask="url(#mask-4)"></path>
                <path d="M337.695,72.633 L359.108,72.633 L359.108,64.182 L337.695,64.182 L337.695,72.633 Z M380.521,93.699 L359.108,93.699 L380.521,123.329 L354.247,123.329 L337.695,100.526 L337.695,123.329 L316.28,123.329 L316.28,93.699 L312,93.699 L312,72.634 L316.28,72.634 L316.28,43 L380.521,43 L380.521,93.699 Z" id="Fill-12" fill="#FF5050" mask="url(#mask-4)"></path>
                <polygon id="Fill-13" fill="#FF5050" mask="url(#mask-4)" points="436.476 123.329 383 123.329 383 43 404.416 43 404.416 102.146 436.476 102.146"></polygon>
                <path d="M460.695,102.146 L482.108,102.146 L482.108,64.182 L460.695,64.182 L460.695,102.146 Z M439.28,123.329 L439.28,64.182 L435,64.182 L435,43 L503.52,43 L503.52,123.329 L439.28,123.329 Z" id="Fill-14" fill="#FF5050" mask="url(#mask-4)"></path>
                <polygon id="Fill-15" fill="#278FFF" mask="url(#mask-4)" points="183.238 41.563 150 41.563 150 26.292 161.08 26.292 161.08 30.664 172.159 30.664 150 17.488 150 0 183.238 0 183.238 15.333 172.159 15.333 172.159 10.959 161.08 10.959 183.238 24.076"></polygon>
                <polygon id="Fill-16" fill="#278FFF" mask="url(#mask-4)" points="209.159 41.503 198.08 41.503 198.08 10.899 187 10.899 187 0 220.238 0 220.238 10.899 209.159 10.899"></polygon>
                <polygon id="Fill-17" fill="#278FFF" mask="url(#mask-4)" points="256.238 41.503 223 41.503 223 0 234.079 0 234.079 30.604 245.158 30.604 245.158 0 256.238 0"></polygon>
                <path d="M272.295,30.602 L283.375,30.602 L283.375,10.958 L272.295,10.958 L272.295,30.602 Z M261.216,41.562 L261.216,10.959 L259,10.959 L259,0 L294.454,0 L294.454,41.562 L261.216,41.562 Z" id="Fill-18" fill="#278FFF" mask="url(#mask-4)"></path>
                <polygon id="Fill-19" fill="#278FFF" mask="url(#mask-4)" points="297 41.563 308.02 41.563 308.02 0 297 0"></polygon>
                <path d="M321.079,30.604 L332.159,30.604 L332.159,10.9 L321.079,10.9 L321.079,30.604 Z M310,41.503 L343.238,41.503 L343.238,0 L310,0 L310,41.503 Z" id="Fill-20" fill="#278FFF" mask="url(#mask-4)"></path>
                <polygon id="Fill-21" fill="#278FFF" mask="url(#mask-4)" points="346 41.563 346 0 357.08 0 357.08 30.603 365.107 30.603 365.107 0 376.187 0 376.187 30.603 385.231 30.603 385.231 0 396.311 0 396.311 41.563"></polygon>
                <path d="M411.295,15.271 L422.375,15.271 L422.375,10.899 L411.295,10.899 L411.295,15.271 Z M422.375,41.562 L422.375,26.231 L411.295,26.231 L411.295,41.562 L400.216,41.562 L400.216,10.899 L398,10.899 L398,0 L433.454,0 L433.454,41.562 L422.375,41.562 Z" id="Fill-22" fill="#278FFF" mask="url(#mask-4)"></path>
                <polygon id="Fill-23" fill="#278FFF" mask="url(#mask-4)" points="456.919 41.563 446.379 41.563 435 0 446.498 0 451.649 18.866 456.799 0 469.316 0"></polygon>
                <polygon id="Fill-24" fill="#278FFF" mask="url(#mask-4)" points="503.455 41.563 470.217 41.563 470.217 26.232 468 26.232 468 15.333 470.217 15.333 470.217 0 503.455 0 503.455 10.959 481.296 10.959 481.296 15.333 503.455 15.333 503.455 26.232 481.296 26.232 481.296 30.603 503.455 30.603"></polygon>
                <polygon id="Fill-25" fill="#278FFF" mask="url(#mask-4)" points="30 174.484 221.49 174.484 221.49 169 30 169"></polygon>
                <polygon id="Fill-26" fill="#278FFF" mask="url(#mask-4)" points="70 131.484 221.49 131.484 221.49 126 70 126"></polygon>
                <polygon id="Fill-27" fill="#278FFF" mask="url(#mask-4)" points="60 142.483 221.49 142.483 221.49 137 60 137"></polygon>
                <polygon id="Fill-28" fill="#278FFF" mask="url(#mask-4)" points="50 153.484 221.49 153.484 221.49 148 50 148"></polygon>
                <polygon id="Fill-29" fill="#278FFF" mask="url(#mask-4)" points="40 163.483 221.49 163.483 221.49 158 40 158"></polygon>
                <polygon id="Fill-30" fill="#278FFF" mask="url(#mask-4)" points="20 185.484 221.49 185.484 221.49 180 20 180"></polygon>
                <polygon id="Fill-31" fill="#278FFF" mask="url(#mask-4)" points="10 196.483 221.49 196.483 221.49 191 10 191"></polygon>
                <polygon id="Fill-32" fill="#278FFF" mask="url(#mask-4)" points="0 206.484 221.49 206.484 221.49 201 0 201"></polygon>
                <path d="M431,127 L431,132.484 L558.208,132.484 C560.304,130.46 562.594,128.624 565.049,127 L431,127 Z" id="Fill-33" fill="#278FFF" mask="url(#mask-4)"></path>
                <path d="M431,137 L431,142.483 L549.893,142.483 C550.988,140.572 552.218,138.742 553.563,137 L431,137 Z" id="Fill-34" fill="#278FFF" mask="url(#mask-4)"></path>
                <path d="M431,148 L431,153.484 L545.388,153.484 C545.922,151.611 546.576,149.782 547.33,148 L431,148 Z" id="Fill-35" fill="#278FFF" mask="url(#mask-4)"></path>
                <path d="M431,159 L431,164.484 L543.627,164.484 C543.72,162.632 543.921,160.803 544.224,159 L431,159 Z" id="Fill-36" fill="#278FFF" mask="url(#mask-4)"></path>
                <path d="M543.645,169 L431,169 L431,174.484 L544.286,174.484 C544.266,174.371 544.24,174.262 544.22,174.148 C543.932,172.424 543.746,170.707 543.645,169" id="Fill-37" fill="#278FFF" mask="url(#mask-4)"></path>
                <path d="M389,180 L389,185.484 L547.084,185.484 C546.324,183.715 545.669,181.885 545.121,180 L389,180 Z" id="Fill-38" fill="#278FFF" mask="url(#mask-4)"></path>
                <path d="M389,191 L389,196.483 L553.422,196.483 C552.06,194.755 550.817,192.921 549.697,191 L389,191 Z" id="Fill-39" fill="#278FFF" mask="url(#mask-4)"></path>
                <path d="M389,201 L389,206.484 L565.163,206.484 C562.67,204.879 560.33,203.04 558.17,201 L389,201 Z" id="Fill-40" fill="#278FFF" mask="url(#mask-4)"></path>
            </g>
        </g>
    </g>
</svg>