<?xml version="1.0" encoding="UTF-8"?>
<svg width="631px" height="207px" viewBox="0 0 631 207" version="1.1" xmlns="http://www.w3.org/2000/svg" xmlns:xlink="http://www.w3.org/1999/xlink">
    <!-- Generator: Sketch 49.2 (51160) - http://www.bohemiancoding.com/sketch -->
    <title>worldcup</title>
    <desc>Created with Sketch.</desc>
    <defs></defs>
    <g id="Welcome" stroke="none" stroke-width="1" fill="none" fill-rule="evenodd">
        <g id="World-Cup-2018" transform="translate(-404.000000, -100.000000)">
            <g id="logo" transform="translate(404.000000, 100.000000)">
                <g id="worldcup">
                    <g transform="translate(150.000000, 43.000000)" fill="#FF5050">
                        <polygon id="Fill-4" points="139.24 163.329 75 163.329 75 83 139.24 83 139.24 112.634 117.828 112.634 117.828 104.183 96.416 104.183 96.416 142.146 117.828 142.146 117.828 133.699 139.24 133.699"></polygon>
                        <polygon id="Fill-6" points="207.24 163.212 143 163.212 143 83 164.416 83 164.416 142.147 185.828 142.147 185.828 83 207.24 83"></polygon>
                        <path d="M235.696,112.634 L257.108,112.634 L257.108,104.183 L235.696,104.183 L235.696,112.634 Z M278.52,133.813 L235.696,133.813 L235.696,163.33 L214.28,163.33 L214.28,133.813 L210,133.813 L210,112.634 L214.28,112.634 L214.28,83 L278.52,83 L278.52,133.813 Z" id="Fill-8"></path>
                        <polygon id="Fill-10" points="0 80.329 0 0 21.416 0 21.416 59.146 35.111 59.146 35.111 0 56.523 0 56.523 59.146 70.22 59.146 70.22 0 91.632 0 91.632 80.329"></polygon>
                        <path d="M115.416,60.146 L136.828,60.146 L136.828,22.065 L115.416,22.065 L115.416,60.146 Z M94,81.212 L158.24,81.212 L158.24,1 L94,1 L94,81.212 Z" id="Fill-11"></path>
                        <path d="M187.695,29.633 L209.108,29.633 L209.108,21.182 L187.695,21.182 L187.695,29.633 Z M230.521,50.699 L209.108,50.699 L230.521,80.329 L204.247,80.329 L187.695,57.526 L187.695,80.329 L166.28,80.329 L166.28,50.699 L162,50.699 L162,29.634 L166.28,29.634 L166.28,0 L230.521,0 L230.521,50.699 Z" id="Fill-12"></path>
                        <polygon id="Fill-13" points="286.476 80.329 233 80.329 233 0 254.416 0 254.416 59.146 286.476 59.146"></polygon>
                        <path d="M310.695,59.146 L332.108,59.146 L332.108,21.182 L310.695,21.182 L310.695,59.146 Z M289.28,80.329 L289.28,21.182 L285,21.182 L285,0 L353.52,0 L353.52,80.329 L289.28,80.329 Z" id="Fill-14"></path>
                    </g>
                    <g id="hacky-corners" fill="#000000" fill-opacity="0.01">
                        <rect id="Rectangle-3" x="0" y="0" width="1" height="1"></rect>
                        <rect id="Rectangle-3" x="0" y="205" width="1" height="1"></rect>
                        <rect id="Rectangle-3" x="630" y="205" width="1" height="1"></rect>
                        <rect id="Rectangle-3" x="630" y="0" width="1" height="1"></rect>
                    </g>
                </g>
            </g>
        </g>
    </g>
</svg>